<svg xmlns="http://www.w3.org/2000/svg" viewBox="0 0 48 48" fill="none">
  <!-- Fin spectrum icon: More Flex / Projection (ghost bent position + solid fin) -->
  <!-- Ghost: where the fin flexes to -->
  <path d="M22 8C22 8 24 14 28 20C32 26 34 32 34 36C34 40 30 42 16 44L32 44C34 42 36 38 34 32C32 26 28 18 26 14C24 10 22 8 22 8Z" fill="currentColor" opacity="0.2"/>
  <!-- Solid: resting fin position -->
  <path d="M22 8C22 8 20 16 18 26C16 34 14 40 10 44L32 44C28 40 26 34 26 26C26 16 22 8 22 8Z" fill="currentColor"/>
  <!-- Dashed flex arc -->
  <path d="M34 12C38 14 40 18 38 22" stroke="currentColor" stroke-width="1.5" stroke-linecap="round" fill="none" stroke-dasharray="2 2" opacity="0.5"/>
</svg>
